<?xml version="1.0" encoding="UTF-8" standalone="no"?>
<svg
   xmlns:dc="http://purl.org/dc/elements/1.1/"
   xmlns:cc="http://creativecommons.org/ns#"
   xmlns:rdf="http://www.w3.org/1999/02/22-rdf-syntax-ns#"
   xmlns:svg="http://www.w3.org/2000/svg"
   xmlns="http://www.w3.org/2000/svg"
   xmlns:xlink="http://www.w3.org/1999/xlink"
   xmlns:sodipodi="http://sodipodi.sourceforge.net/DTD/sodipodi-0.dtd"
   xmlns:inkscape="http://www.inkscape.org/namespaces/inkscape"
   width="210mm"
   height="216mm"
   viewBox="0 0 210 216"
   version="1.1"
   id="svg8"
   inkscape:version="1.0 (4035a4fb49, 2020-05-01)"
   sodipodi:docname="It's me - Flat.svg">
  <defs
     id="defs2">
    <linearGradient
       inkscape:collect="always"
       id="linearGradient1665">
      <stop
         style="stop-color:#c87137;stop-opacity:1"
         offset="0"
         id="stop1661" />
      <stop
         style="stop-color:#feb27f;stop-opacity:1"
         offset="1"
         id="stop1663" />
    </linearGradient>
    <clipPath
       clipPathUnits="userSpaceOnUse"
       id="clipPath719">
      <rect
         style="fill:#ff6600;fill-opacity:1;stroke:#2b1100;stroke-width:2;stroke-opacity:0"
         id="rect721"
         width="127.34811"
         height="78.705452"
         x="134.13597"
         y="7.5429158" />
    </clipPath>
    <clipPath
       clipPathUnits="userSpaceOnUse"
       id="clipPath735">
      <rect
         style="fill:#ff6600;fill-opacity:1;stroke:#2b1100;stroke-width:1.86376;stroke-opacity:0"
         id="rect737"
         width="135.85448"
         height="81.066582"
         x="105.05788"
         y="-7.2990098" />
    </clipPath>
    <linearGradient
       inkscape:collect="always"
       xlink:href="#linearGradient1665"
       id="linearGradient1667"
       x1="166.03235"
       y1="89.829903"
       x2="166.81897"
       y2="145.90135"
       gradientUnits="userSpaceOnUse"
       gradientTransform="matrix(1,0,0,0.9164333,-0.4619737,7.5214152)" />
  </defs>
  <sodipodi:namedview
     id="base"
     pagecolor="#ffffff"
     bordercolor="#666666"
     borderopacity="1.0"
     inkscape:pageopacity="0.0"
     inkscape:pageshadow="2"
     inkscape:zoom="0.59706584"
     inkscape:cx="375.67531"
     inkscape:cy="420.59821"
     inkscape:document-units="mm"
     inkscape:current-layer="layer1"
     inkscape:document-rotation="0"
     showgrid="false"
     showguides="true"
     inkscape:guide-bbox="true"
     inkscape:snap-bbox="true"
     inkscape:bbox-nodes="false"
     inkscape:bbox-paths="true"
     inkscape:snap-global="true"
     inkscape:window-width="1280"
     inkscape:window-height="737"
     inkscape:window-x="-8"
     inkscape:window-y="-8"
     inkscape:window-maximized="1"
     width="210mm"
     inkscape:snap-page="true" />
  <metadata
     id="metadata5">
    <rdf:RDF>
      <cc:Work
         rdf:about="">
        <dc:format>image/svg+xml</dc:format>
        <dc:type
           rdf:resource="http://purl.org/dc/dcmitype/StillImage" />
        <dc:title></dc:title>
      </cc:Work>
    </rdf:RDF>
  </metadata>
  <g
     inkscape:label="Layer 1"
     inkscape:groupmode="layer"
     id="layer1">
    <g
       id="g124"
       transform="matrix(0.914967,0,0,0.914967,-46.871711,37.736769)">
      <rect
         ry="24.670193"
         y="90.004936"
         x="141.31581"
         height="54.898254"
         width="49.340385"
         id="rect505"
         style="fill:url(#linearGradient1667);fill-opacity:1;stroke-width:0.879493" />
      <path
         sodipodi:nodetypes="ssscsss"
         d="m 165.986,20.265379 c 18.43423,0 33.27478,14.840554 33.27478,33.274784 v 40.333084 c 0,18.434233 -12.28404,29.428993 -33.27478,33.274783 -20.88557,-3.84579 -33.27479,-14.84055 -33.27479,-33.274783 V 53.540163 c 0,-18.43423 14.84056,-33.274784 33.27479,-33.274784 z"
         style="opacity:0.996;fill:#ffb37f;fill-opacity:1;stroke:none;stroke-width:1.28185"
         id="rect691" />
      <rect
         transform="translate(-0.46194388)"
         clip-path="url(#clipPath735)"
         rx="33.274784"
         style="opacity:0.996;fill:#552200;fill-opacity:1;stroke:none;stroke-width:1.28185"
         id="rect713"
         width="66.549568"
         height="106.88265"
         x="133.17316"
         y="20.265379"
         ry="33.274784" />
      <rect
         rx="25.120001"
         style="opacity:0.996;fill:#ffb380;stroke:#feb27f;stroke-width:0.96771;stroke-opacity:1"
         id="rect517"
         width="50.240002"
         height="80.689827"
         x="140.866"
         y="33.36179"
         ry="25.120415" />
      <g
         transform="matrix(1.1203846,0,0,1.1203846,16.327918,17.915966)"
         id="g533">
        <g
           id="g525"
           transform="translate(0,-0.14749146)">
          <circle
             r="3.1982782"
             cy="49.089508"
             cx="121.34779"
             id="circle521"
             style="opacity:1;fill:#000000;fill-opacity:1;stroke:none;stroke-width:1" />
          <rect
             rx="1.7698885"
             ry="1.7698885"
             y="41.395725"
             x="114.35446"
             height="3.539777"
             width="10.815985"
             id="rect523"
             style="opacity:1;fill:#000000;fill-opacity:1;stroke:none;stroke-width:1" />
        </g>
        <g
           id="g531"
           transform="translate(0,0.14749146)">
          <circle
             transform="scale(-1,1)"
             style="opacity:1;fill:#000000;fill-opacity:1;stroke:none;stroke-width:1"
             id="circle527"
             cx="-145.80704"
             cy="48.794525"
             r="3.1982782" />
          <rect
             rx="1.7698885"
             transform="scale(-1,1)"
             style="opacity:1;fill:#000000;fill-opacity:1;stroke:none;stroke-width:1"
             id="rect529"
             width="10.815985"
             height="3.539777"
             x="-152.80037"
             y="41.100742"
             ry="1.7698885" />
        </g>
      </g>
      <g
         transform="translate(-0.46195532)"
         id="g709">
        <circle
           d="m 184.93044,92.296783 a 18.482487,16.857309 0 0 1 -9.24124,14.598857 18.482487,16.857309 0 0 1 -18.48249,0 18.482487,16.857309 0 0 1 -9.24124,-14.598857 h 18.48248 z"
           style="fill:#ffaaaa;fill-opacity:1;stroke:none;stroke-width:0.997302"
           id="circle537"
           sodipodi:type="arc"
           sodipodi:cx="166.44795"
           sodipodi:cy="92.296783"
           sodipodi:rx="18.482487"
           sodipodi:ry="16.857309"
           sodipodi:start="0"
           sodipodi:end="3.1415927"
           sodipodi:arc-type="slice" />
        <rect
           style="fill:#c83737;fill-opacity:1;stroke-width:1.04332"
           id="rect539"
           width="4.8874822"
           height="5.2271533"
           x="164.00421"
           y="98.578209"
           ry="2.4437411"
           rx="2.4437411" />
        <g
           id="g545"
           transform="translate(-40.13427,-8.0991381)">
          <path
             transform="scale(0.26458333)"
             d="m 715.38867,379.44922 c -0.71704,1.76043 -1.11914,3.6849 -1.11914,5.70898 0,8.35514 6.72686,15.08203 15.08203,15.08203 h 102.86328 c 8.35514,0 15.08204,-6.72689 15.08204,-15.08203 0,-2.02408 -0.40211,-3.94855 -1.11915,-5.70898 H 780.7832 Z"
             style="fill:#ffffff;fill-opacity:1;stroke-width:3.77953"
             id="path541" />
          <path
             transform="scale(0.26458333)"
             d="m 729.35156,414.32812 c -2.16927,0 -4.22352,0.46168 -6.08398,1.2793 a 69.855069,63.712664 0 0 0 22.58789,19.01758 69.855069,63.712664 0 0 0 69.85547,0 69.855069,63.712664 0 0 0 22.58789,-19.01953 c -1.85983,-0.81696 -3.91565,-1.27735 -6.08399,-1.27735 z"
             style="fill:#ffffff;fill-opacity:1;stroke-width:3.77953"
             id="path543" />
        </g>
      </g>
      <g
         transform="translate(-0.54633943)"
         id="g1677">
        <path
           id="path697"
           style="fill:#feb37f;fill-opacity:1;stroke:#feb27f;stroke-width:1.65303;stroke-opacity:1"
           inkscape:transform-center-y="-3.5420064"
           d="m 143.20545,73.078635 h -8.36191 c 3.1658,-3.807115 6.4282,-12.058322 8.36191,-23.296372 z"
           sodipodi:nodetypes="cccc"
           inkscape:transform-center-x="1.1816064e-06" />
        <path
           sodipodi:nodetypes="cccc"
           d="m 189.83563,73.070141 h 8.38085 c -3.17296,-3.805496 -6.44275,-12.053193 -8.38085,-23.286464 z"
           inkscape:transform-center-y="-3.5405001"
           style="fill:#feb37f;fill-opacity:1;stroke:#feb27f;stroke-width:1.65455;stroke-opacity:1"
           id="path739"
           inkscape:transform-center-x="4.3609509e-06" />
      </g>
      <g
         transform="matrix(1.0059017,0,0,1.0059017,-0.74647485,-0.2501229)"
         id="g1673">
        <path
           style="fill:#241c1c;stroke:#000000;stroke-width:2;stroke-linecap:butt;stroke-linejoin:miter;stroke-miterlimit:4;stroke-dasharray:none;stroke-opacity:1"
           d="m 135.99634,43.38534 c -3.84048,-0.54864 -10.74873,49.687989 -7.78711,71.75266 2.40046,17.88394 9.33201,26.04275 20.85835,26.97679 5.62052,0.45546 16.68666,2.78112 16.68666,2.78112 -26.21713,-19.01136 -34.10229,-39.75931 -29.7579,-101.51057 z"
           id="path1659"
           sodipodi:nodetypes="csscc" />
        <path
           sodipodi:nodetypes="csscc"
           id="path1669"
           d="m 195.51214,43.385343 c 3.84048,-0.54864 10.74873,49.687989 7.78711,71.752657 -2.40046,17.88394 -9.33201,26.04275 -20.85835,26.97679 -5.62052,0.45546 -16.68666,2.78112 -16.68666,2.78112 26.21713,-19.01136 34.10229,-39.75931 29.7579,-101.510567 z"
           style="fill:#241c1c;stroke:#000000;stroke-width:2;stroke-linecap:butt;stroke-linejoin:miter;stroke-miterlimit:4;stroke-dasharray:none;stroke-opacity:1" />
      </g>
      <g
         transform="matrix(0.52185987,0,0,0.52185987,167.64846,40.139874)"
         id="g1655">
        <path
           style="fill:none;stroke:#c8ab37;stroke-width:2;stroke-linecap:butt;stroke-linejoin:miter;stroke-miterlimit:4;stroke-dasharray:none;stroke-opacity:1"
           d="m -7.2845222,55.456514 c 2.8124539,-2.52653 5.3177539,-2.52653 8.20784544,-6e-6"
           id="path1616"
           sodipodi:nodetypes="cc" />
        <path
           style="fill:#c8ab37;fill-opacity:1;stroke:#c8ab37;stroke-width:1.96501;stroke-linecap:butt;stroke-linejoin:miter;stroke-miterlimit:4;stroke-dasharray:none;stroke-opacity:1"
           d="m -30.27499,36.907616 54.178665,5e-6"
           id="path1626"
           sodipodi:nodetypes="cc" />
        <g
           id="g1648">
          <path
             sodipodi:nodetypes="saass"
             id="path787"
             d="m -58.996284,44.148885 c 8.148656,-9.595434 27.175359,-9.732955 39.134201,-4.326393 6.346659,2.869308 12.8616271,10.197803 11.9959121,17.108921 -1.837272,14.667186 -18.8680571,28.102293 -33.6278831,28.908179 -17.598723,0.96089 -30.904005,-25.909472 -17.50223,-41.690707 z"
             style="fill:none;stroke:#c8ab37;stroke-width:2;stroke-linecap:butt;stroke-linejoin:miter;stroke-miterlimit:4;stroke-dasharray:none;stroke-opacity:1" />
          <path
             style="fill:none;stroke:#c8ab37;stroke-width:2;stroke-linecap:butt;stroke-linejoin:miter;stroke-miterlimit:4;stroke-dasharray:none;stroke-opacity:1"
             d="M 52.624969,44.148884 C 44.476313,34.55345 25.44961,34.415929 13.490768,39.822491 7.1441085,42.691799 0.62913953,50.020294 1.4948545,56.931412 3.3321265,71.598598 20.362913,85.033705 35.122739,85.839591 52.721462,86.800481 66.026743,59.930119 52.624969,44.148884 Z"
             id="path1644"
             sodipodi:nodetypes="saass" />
        </g>
      </g>
      <g
         transform="translate(85.688247,-16.590902)"
         id="g776">
        <path
           id="path743"
           style="fill:#552200;fill-opacity:1;stroke:#280b0b;stroke-width:2;stroke-opacity:1"
           d="M 107.21541,49.952692 C 105.81211,57.743439 99.748756,67.887409 92.868674,68.877704 85.988592,69.867999 79.608391,65.093382 78.618097,58.2133 77.627804,51.333219 82.342422,44.351961 89.282501,43.962725 99.715026,43.377614 100.90442,31.787051 100.09586,26.287316 c 6.12258,5.501153 8.57985,15.558139 7.11955,23.665376 z"
           sodipodi:nodetypes="asssca" />
        <rect
           style="fill:#552200;fill-opacity:1;stroke:#280b0b;stroke-width:2;stroke-opacity:1"
           id="rect754"
           width="53.489964"
           height="13.274163"
           x="54.669891"
           y="55.948147"
           ry="6.6370816" />
        <path
           sodipodi:nodetypes="asssca"
           d="m 117.3317,49.952692 c -1.4033,7.790747 -7.46665,17.934717 -14.34673,18.925012 C 96.104885,69.867999 89.724684,65.093382 88.73439,58.2133 87.744097,51.333219 92.458715,44.351961 99.398796,43.962725 109.83132,43.377614 111.02071,31.787051 110.21215,26.287316 c 6.12258,5.501153 8.57985,15.558139 7.11955,23.665376 z"
           style="fill:#552200;fill-opacity:1;stroke:#280b0b;stroke-width:2;stroke-opacity:1"
           id="path746" />
        <path
           id="path748"
           style="fill:#552200;fill-opacity:1;stroke:#280b0b;stroke-width:2;stroke-opacity:1"
           d="M 76.866524,49.952692 C 75.463229,57.743439 69.399875,67.887409 62.519794,68.877704 55.639712,69.867999 49.259512,65.093382 48.269218,58.2133 47.278925,51.333219 51.993542,44.351961 58.933621,43.962725 69.366142,43.377614 70.555539,31.787051 69.746978,26.287316 c 6.122581,5.501153 8.579849,15.558139 7.119546,23.665376 z"
           sodipodi:nodetypes="asssca" />
        <path
           sodipodi:nodetypes="asssca"
           d="M 86.982817,49.952692 C 85.579522,57.743439 79.516169,67.887409 72.636088,68.877704 65.756005,69.867999 59.375804,65.093382 58.38551,58.2133 57.395217,51.333219 62.109835,44.351961 69.049915,43.962725 79.482436,43.377614 80.671832,31.787051 79.863272,26.287316 c 6.12258,5.501153 8.579848,15.558139 7.119545,23.665376 z"
           style="fill:#552200;fill-opacity:1;stroke:#280b0b;stroke-width:2;stroke-opacity:1"
           id="path750" />
        <path
           id="path752"
           style="fill:#552200;fill-opacity:1;stroke:#280b0b;stroke-width:2;stroke-opacity:1"
           d="M 97.099108,49.952692 C 95.695813,57.743439 89.63246,67.887409 82.752379,68.877704 75.872297,69.867999 69.492095,65.093382 68.501801,58.2133 67.511508,51.333219 72.226127,44.351961 79.166206,43.962725 89.598727,43.377614 90.788123,31.787051 89.979563,26.287316 c 6.12258,5.501153 8.579843,15.558139 7.119545,23.665376 z"
           sodipodi:nodetypes="asssca" />
      </g>
    </g>
  </g>
</svg>
