<?xml version="1.0" encoding="UTF-8" standalone="no"?>
<svg
   xmlns:dc="http://purl.org/dc/elements/1.1/"
   xmlns:cc="http://creativecommons.org/ns#"
   xmlns:rdf="http://www.w3.org/1999/02/22-rdf-syntax-ns#"
   xmlns:svg="http://www.w3.org/2000/svg"
   xmlns="http://www.w3.org/2000/svg"
   xmlns:sodipodi="http://sodipodi.sourceforge.net/DTD/sodipodi-0.dtd"
   xmlns:inkscape="http://www.inkscape.org/namespaces/inkscape"
   inkscape:export-ydpi="96"
   inkscape:export-xdpi="96"
   inkscape:export-filename="/home/arikbartzadok/Desktop/ETEC_AULAS/INFONET/CP/Atividade_02_diogo/head.png"
   inkscape:version="0.92.5 (2060ec1f9f, 2020-04-08)"
   sodipodi:docname="Arcanjoleto.svg"
   id="svg1048"
   version="1.1"
   viewBox="0 0 210 297"
   height="297mm"
   width="210mm">
  <defs
     id="defs1042">
    <clipPath
       id="clipPath79"
       clipPathUnits="userSpaceOnUse">
      <path
         style="fill:#800000;stroke:#ffb380;stroke-width:4.00029;stroke-linecap:round;stroke-linejoin:round"
         id="path81"
         sodipodi:type="arc"
         sodipodi:cx="-203.63268"
         sodipodi:cy="-169.81395"
         sodipodi:rx="20.555288"
         sodipodi:ry="17.11335"
         sodipodi:start="2.9000391"
         sodipodi:end="0.16294516"
         sodipodi:open="true"
         sodipodi:arc-type="arc"
         transform="matrix(-0.99924797,-0.03877484,0.05598637,-0.99843153,0,0)" />
    </clipPath>
    <clipPath
       id="clipPath83"
       clipPathUnits="userSpaceOnUse">
      <path
         style="fill:#800000;stroke:#ffb380;stroke-width:4.00029;stroke-linecap:round;stroke-linejoin:round"
         id="path85"
         sodipodi:type="arc"
         sodipodi:cx="-203.63268"
         sodipodi:cy="-169.81395"
         sodipodi:rx="20.555288"
         sodipodi:ry="17.11335"
         sodipodi:start="2.9000391"
         sodipodi:end="0.16294516"
         sodipodi:open="true"
         sodipodi:arc-type="arc"
         transform="matrix(-0.99924797,-0.03877484,0.05598637,-0.99843153,0,0)" />
    </clipPath>
    <clipPath
       id="clipPath87"
       clipPathUnits="userSpaceOnUse">
      <path
         style="fill:#800000;stroke:#ffb380;stroke-width:4.00029;stroke-linecap:round;stroke-linejoin:round"
         id="path89"
         sodipodi:type="arc"
         sodipodi:cx="-203.63268"
         sodipodi:cy="-169.81395"
         sodipodi:rx="20.555288"
         sodipodi:ry="17.11335"
         sodipodi:start="2.9000391"
         sodipodi:end="0.16294516"
         sodipodi:open="true"
         sodipodi:arc-type="arc"
         transform="matrix(-0.99924797,-0.03877484,0.05598637,-0.99843153,0,0)" />
    </clipPath>
  </defs>
  <sodipodi:namedview
     inkscape:snap-global="false"
     inkscape:document-rotation="0"
     inkscape:window-maximized="0"
     inkscape:window-y="0"
     inkscape:window-x="41"
     inkscape:window-height="736"
     inkscape:window-width="1316"
     showgrid="false"
     inkscape:current-layer="layer2"
     inkscape:document-units="mm"
     inkscape:cy="518.3955"
     inkscape:cx="270.74207"
     inkscape:zoom="0.49497475"
     inkscape:pageshadow="2"
     inkscape:pageopacity="0.0"
     borderopacity="1.0"
     bordercolor="#666666"
     pagecolor="#ffffff"
     id="base" />
  <metadata
     id="metadata1045">
    <rdf:RDF>
      <cc:Work
         rdf:about="">
        <dc:format>image/svg+xml</dc:format>
        <dc:type
           rdf:resource="http://purl.org/dc/dcmitype/StillImage" />
        <dc:title />
      </cc:Work>
    </rdf:RDF>
  </metadata>
  <g
     style="opacity:1"
     inkscape:label="Camada 2"
     id="layer2"
     inkscape:groupmode="layer">
    <g
       id="g956">
      <path
         style="fill:#ffb380;stroke:none;stroke-width:4;stroke-linecap:round;stroke-linejoin:round"
         id="path33"
         sodipodi:type="arc"
         sodipodi:cx="106.35841"
         sodipodi:cy="151.73788"
         sodipodi:rx="47.210278"
         sodipodi:ry="60.401215"
         sodipodi:start="2.9000391"
         sodipodi:end="2.8885374"
         sodipodi:open="true"
         sodipodi:arc-type="arc"
         d="M 60.518768,166.18654 A 47.210278,60.401215 0 0 1 94.933417,93.132055 47.210278,60.401215 0 0 1 152.13236,136.95219 47.210278,60.401215 0 0 1 118.04665,210.25868 47.210278,60.401215 0 0 1 60.651688,166.86012" />
      <rect
         style="fill:#ffb380;fill-opacity:1;stroke:#ffccaa;stroke-width:4;stroke-linecap:round;stroke-linejoin:round;stroke-miterlimit:4;stroke-dasharray:none"
         id="rect1160"
         width="104.76965"
         height="43.297661"
         x="53.453903"
         y="129.89299"
         rx="32.409077"
         ry="19.833023" />
      <rect
         style="fill:#2b1100;stroke:none;stroke-width:4.00001;stroke-linecap:round;stroke-linejoin:round"
         id="rect37"
         width="128.16879"
         height="94.532654"
         x="103.07741"
         y="-152.84486"
         rx="49.657494"
         ry="47.205826"
         transform="matrix(0.00476636,0.99998864,-0.99998099,0.00616595,0,0)" />
      <rect
         style="fill:#2b1100;stroke:none;stroke-width:4;stroke-linecap:round;stroke-linejoin:round"
         id="rect39"
         width="93.544327"
         height="83.92263"
         x="59.333832"
         y="81.271431"
         rx="46.49107"
         ry="30.238094" />
      <rect
         ry="0"
         rx="0"
         y="108.33453"
         x="59.333832"
         height="58.976204"
         width="93.544327"
         id="rect979"
         style="fill:#2b1100;stroke:none;stroke-width:4;stroke-linecap:round;stroke-linejoin:round" />
      <g
         id="g969"
         style="fill:#ffccaa;stroke-width:0.899083"
         transform="matrix(1.1122449,0,0,1.1122449,-134.86357,-19.804024)">
        <rect
           ry="32.50079"
           rx="23.280548"
           y="103.1875"
           x="180.29465"
           height="102.43154"
           width="71.815475"
           id="rect963"
           style="fill:#ffccaa;fill-opacity:1;stroke:none;stroke-width:3.59633;stroke-linecap:round;stroke-linejoin:round" />
        <rect
           style="fill:#ffccaa;fill-opacity:1;stroke:none;stroke-width:3.59633;stroke-linecap:round;stroke-linejoin:round"
           id="rect965"
           width="74.083336"
           height="102.43154"
           x="179.16072"
           y="109.53748"
           rx="32.284016"
           ry="46.047207" />
      </g>
      <path
         inkscape:transform-center-x="-0.065589994"
         transform="matrix(1.2078335,0.01752804,-0.01752804,1.2078335,-17.062196,-43.44262)"
         inkscape:transform-center-y="2.2029273"
         d="m 104.23512,209.00477 -2.84347,-5.84187 -3.637469,-5.38345 6.480939,0.45842 6.48094,-0.45842 -3.63747,5.38345 z"
         inkscape:randomized="0"
         inkscape:rounded="0"
         inkscape:flatsided="false"
         sodipodi:arg2="2.6179939"
         sodipodi:arg1="1.5707963"
         sodipodi:r2="3.2833538"
         sodipodi:r1="7.4835467"
         sodipodi:cy="201.52122"
         sodipodi:cx="104.23512"
         sodipodi:sides="3"
         id="path40"
         style="fill:#2b1100;stroke-width:3.31137;stroke-linecap:round;stroke-linejoin:round"
         sodipodi:type="star" />
      <path
         d="m -137.659,-163.4979 a 24.124041,21.557554 0 0 1 9.20489,-22.57185 24.124041,21.557554 0 0 1 26.86327,-0.944 24.124041,21.557554 0 0 1 11.159992,21.85622"
         style="fill:#800000;stroke:#ffb380;stroke-width:4.0001;stroke-linecap:round;stroke-linejoin:round"
         id="path48"
         sodipodi:type="arc"
         sodipodi:cx="-114.23534"
         sodipodi:cy="-168.65471"
         sodipodi:rx="24.124041"
         sodipodi:ry="21.557554"
         sodipodi:start="2.9000391"
         sodipodi:end="0.16294516"
         sodipodi:open="true"
         sodipodi:arc-type="arc"
         transform="matrix(-0.99913321,-0.04162731,0.05215482,-0.99863901,0,0)" />
      <path
         d="m 98.30979,180.63632 a 7.7485118,7.7485118 0 0 1 5.51012,-9.33588 7.7485118,7.7485118 0 0 1 9.45118,5.30993 7.7485118,7.7485118 0 0 1 -5.10732,9.56218 7.7485118,7.7485118 0 0 1 -9.668849,-4.90239"
         style="fill:#550000;fill-opacity:0.879795;stroke:none;stroke-width:4;stroke-linecap:round;stroke-linejoin:round"
         id="path95"
         sodipodi:type="arc"
         sodipodi:cx="105.83334"
         sodipodi:cy="178.78279"
         sodipodi:rx="7.7485118"
         sodipodi:ry="7.7485118"
         sodipodi:start="2.9000391"
         sodipodi:end="2.8147948"
         sodipodi:open="true"
         sodipodi:arc-type="arc" />
      <path
         d="m 202.73727,193.00959 a 9.0871639,7.4835467 0 0 1 -10.87769,5.40493 9.0871639,7.4835467 0 0 1 -6.80871,-8.83292 9.0871639,7.4835467 0 0 1 10.56814,-5.80651 9.0871639,7.4835467 0 0 1 7.28917,8.56893"
         style="fill:#ff8080;stroke:none;stroke-width:3.22482;stroke-linecap:round;stroke-linejoin:round"
         id="path44"
         sodipodi:type="arc"
         sodipodi:cx="193.94139"
         sodipodi:cy="191.13"
         sodipodi:rx="9.0871639"
         sodipodi:ry="7.4835467"
         sodipodi:start="0.25388036"
         sodipodi:end="0.16294516"
         sodipodi:open="true"
         sodipodi:arc-type="arc"
         clip-path="url(#clipPath87)"
         transform="matrix(1.2211091,0,0,1.2599541,-131.0016,-50.573434)" />
      <rect
         ry="7.1797137"
         rx="7.7946005"
         y="189.33807"
         x="178.70189"
         height="10.69078"
         width="31.805073"
         id="rect46"
         style="fill:#ffffff;stroke:none;stroke-width:6.21997;stroke-linecap:round;stroke-linejoin:round"
         clip-path="url(#clipPath83)"
         transform="matrix(0.61720307,0,0,0.6700616,-14.28062,63.5211)" />
      <rect
         style="fill:#ffffff;stroke:none;stroke-width:3.22481;stroke-linecap:round;stroke-linejoin:round"
         id="rect38"
         width="35.279579"
         height="10.69078"
         x="176.30185"
         y="170.81749"
         rx="3.939739"
         ry="3.8182745"
         clip-path="url(#clipPath79)"
         transform="matrix(1.2211091,0,0,1.2599541,-131.20205,-50.573434)" />
      <path
         d="m -137.659,-163.4979 a 24.124041,21.557554 0 0 1 9.20489,-22.57185 24.124041,21.557554 0 0 1 26.86327,-0.944 24.124041,21.557554 0 0 1 11.159992,21.85622"
         transform="matrix(-0.99913321,-0.04162731,0.05215482,-0.99863901,0,0)"
         sodipodi:arc-type="arc"
         sodipodi:open="true"
         sodipodi:end="0.16294516"
         sodipodi:start="2.9000391"
         sodipodi:ry="21.557554"
         sodipodi:rx="24.124041"
         sodipodi:cy="-168.65471"
         sodipodi:cx="-114.23534"
         sodipodi:type="arc"
         id="path91"
         style="fill:none;stroke:#ffb380;stroke-width:4.0001;stroke-linecap:round;stroke-linejoin:round" />
      <rect
         style="fill:#2b1100;fill-opacity:1;stroke:#2b1100;stroke-width:4;stroke-linecap:round;stroke-linejoin:round"
         id="rect987"
         width="48.002975"
         height="3.7797623"
         x="82.020836"
         y="164.04167"
         rx="4.3467336"
         ry="6.0476193" />
      <rect
         style="fill:#ffb380;fill-opacity:1;stroke:none;stroke-width:4;stroke-linecap:round;stroke-linejoin:round"
         id="rect981"
         width="15.718438"
         height="25.558786"
         x="97.407166"
         y="137.8829"
         rx="46.491001"
         ry="30.238167" />
      <rect
         style="fill:#1a1a1a;fill-opacity:1;stroke:#1a1a1a;stroke-width:4;stroke-linecap:round;stroke-linejoin:round"
         id="rect1085"
         width="12.561667"
         height="4.0090427"
         x="98.889725"
         y="130.70018"
         rx="46.490997"
         ry="4.0090427" />
      <rect
         ry="12.864936"
         rx="6.4255943"
         y="135.26175"
         x="98.138245"
         height="25.558786"
         width="14.256257"
         id="rect983"
         style="fill:#ffb380;fill-opacity:1;stroke:none;stroke-width:4;stroke-linecap:round;stroke-linejoin:round" />
      <path
         style="fill:#2b1100;stroke:#2b1100;stroke-width:0.264583px;stroke-linecap:butt;stroke-linejoin:miter;stroke-opacity:1;fill-opacity:0.87"
         d="M 152.84108,142.84113 137.8739,120.39048 136.53754,96.870768 c 6.52081,5.764082 13.24049,9.778082 16.30354,45.970362 z"
         id="path991"
         sodipodi:nodetypes="cccc" />
      <path
         style="fill:#2b1100;stroke:#2b1100;stroke-width:0.264583px;stroke-linecap:butt;stroke-linejoin:miter;stroke-opacity:1;fill-opacity:0.94999999"
         d="m 63.342876,160.89088 14.967093,22.45065 1.33635,23.51971 C 73.125546,201.09716 66.4059,197.08316 63.342876,160.89088 Z"
         id="path985"
         sodipodi:nodetypes="cccc" />
      <path
         sodipodi:nodetypes="cccc"
         id="path989"
         d="m 147.92739,160.89088 -14.96718,22.45065 -1.33636,23.51971 c 6.52081,-5.76408 13.24049,-9.77808 16.30354,-45.97036 z"
         style="fill:#2b1100;stroke:#2b1100;stroke-width:0.264583px;stroke-linecap:butt;stroke-linejoin:miter;stroke-opacity:1;fill-opacity:0.94999999" />
      <path
         sodipodi:nodetypes="cccc"
         id="path993"
         d="m 59.260701,142.84113 14.967096,-22.45065 1.336354,-23.519712 c -6.520774,5.764082 -13.240415,9.778082 -16.30345,45.970362 z"
         style="fill:#2b1100;stroke:#2b1100;stroke-width:0.264583px;stroke-linecap:butt;stroke-linejoin:miter;stroke-opacity:1;fill-opacity:0.87212282" />
      <path
         style="fill:#2b1100;fill-opacity:1;stroke:#2b1100;stroke-width:4;stroke-linecap:round;stroke-linejoin:round"
         id="path995"
         sodipodi:type="arc"
         sodipodi:cx="105.45514"
         sodipodi:cy="93.813675"
         sodipodi:rx="15.874666"
         sodipodi:ry="3.7705443"
         sodipodi:start="2.9000391"
         sodipodi:end="2.8822891"
         sodipodi:open="true"
         sodipodi:arc-type="arc"
         d="m 90.041354,94.715632 a 15.874666,3.7705443 0 0 1 11.548026,-4.558995 15.874666,3.7705443 0 0 1 19.24524,2.722625 15.874666,3.7705443 0 0 1 -11.37723,4.583158 15.874666,3.7705443 0 0 1 -19.346208,-2.681949" />
      <g
         id="g1220"
         transform="matrix(1.0159127,0,0,1,-0.92324236,0)"
         style="stroke-width:0.992137">
        <g
           style="fill:#2b1100;stroke-width:0.992137"
           transform="translate(-110.12041,3.2072343)"
           id="g953">
          <rect
             style="fill:#2b1100;fill-opacity:1;stroke:none;stroke-width:3.96855;stroke-linecap:round;stroke-linejoin:round"
             id="rect944"
             width="23.519718"
             height="21.64883"
             x="181.21413"
             y="128.82391"
             ry="10.824415"
             rx="7.6293974" />
          <rect
             rx="7.103231"
             ry="10.451442"
             y="135.29781"
             x="230.56157"
             height="22.736767"
             width="23.519718"
             id="rect946"
             style="fill:#2b1100;fill-opacity:1;stroke:none;stroke-width:4.06705;stroke-linecap:round;stroke-linejoin:round"
             transform="matrix(1,0,-0.30562864,0.95215079,0,0)" />
          <rect
             rx="4.7354851"
             ry="4.8108392"
             y="128.82391"
             x="181.21413"
             height="13.898014"
             width="23.519718"
             id="rect948"
             style="fill:#2b1100;fill-opacity:1;stroke:none;stroke-width:3.96855;stroke-linecap:round;stroke-linejoin:round" />
        </g>
        <g
           style="fill:#1a1a1a;stroke-width:0.862471"
           transform="matrix(-1.1287751,0,0,1.1723199,346.20844,-21.257856)"
           id="g1011">
          <rect
             style="fill:#1a1a1a;fill-opacity:1;stroke:none;stroke-width:3.44988;stroke-linecap:round;stroke-linejoin:round"
             id="rect1005"
             width="23.519718"
             height="21.64883"
             x="181.21413"
             y="128.82391"
             ry="9.2333288"
             rx="6.7590055" />
          <rect
             rx="6.2928662"
             ry="8.9414816"
             y="135.29781"
             x="230.56157"
             height="22.736767"
             width="23.519718"
             id="rect1007"
             style="fill:#1a1a1a;fill-opacity:1;stroke:none;stroke-width:3.53551;stroke-linecap:round;stroke-linejoin:round"
             transform="matrix(1,0,-0.30562864,0.95215079,0,0)" />
          <rect
             rx="4.1952419"
             ry="4.1036916"
             y="128.82391"
             x="181.21413"
             height="13.898014"
             width="23.519718"
             id="rect1009"
             style="fill:#1a1a1a;fill-opacity:1;stroke:none;stroke-width:3.44988;stroke-linecap:round;stroke-linejoin:round" />
        </g>
        <g
           transform="matrix(-1,0,0,1,211.05137,0.32127975)"
           id="g1176"
           style="fill:#333333;stroke-width:0.992137">
          <rect
             transform="matrix(0.94632573,-0.3232145,0,1,0,0)"
             rx="1.4906452"
             ry="1.5119047"
             y="153.91348"
             x="61.310123"
             height="5.7540336"
             width="12.310255"
             id="rect1172"
             style="fill:#333333;fill-opacity:1;stroke:none;stroke-width:4.07953;stroke-linecap:round;stroke-linejoin:round;stroke-miterlimit:4;stroke-dasharray:none" />
          <rect
             style="fill:#333333;fill-opacity:1;stroke:none;stroke-width:4.10253;stroke-linecap:round;stroke-linejoin:round;stroke-miterlimit:4;stroke-dasharray:none"
             id="rect1174"
             width="9.4199486"
             height="4.8043385"
             x="65.032707"
             y="156.37564"
             ry="0"
             rx="0"
             transform="matrix(0.93574712,-0.35267169,0,1,0,0)" />
        </g>
        <g
           transform="translate(-32.467875,7.884451)"
           id="g1055"
           style="stroke-width:0.992137">
          <g
             style="fill:#1a1a1a;stroke-width:3.39746"
             transform="matrix(0.26086136,0,0,0.32690697,120.55942,79.775131)"
             id="g1035">
            <path
               id="rect1029"
               style="fill:#1a1a1a;fill-opacity:1;stroke:none;stroke-width:13.5899;stroke-linecap:round;stroke-linejoin:round"
               d="m 192.97399,128.82391 c 6.51496,0 11.75985,4.82769 11.75985,10.82442 0,5.99672 -5.24489,10.82441 -11.75985,10.82441 -6.51497,0 -11.75986,-4.82769 -11.75986,-10.82441 0,-5.99673 5.24489,-10.82442 11.75986,-10.82442 z" />
            <path
               id="rect1031"
               style="fill:#1a1a1a;fill-opacity:1;stroke:none;stroke-width:13.9271;stroke-linecap:round;stroke-linejoin:round"
               transform="matrix(1,0,-0.30562864,0.95215079,0,0)"
               d="m 242.32143,135.29781 c 6.51496,0 11.75986,5.07029 11.75986,11.36838 0,6.29808 -5.2449,11.36838 -11.75986,11.36838 -6.51496,0 -11.75986,-5.0703 -11.75986,-11.36838 0,-6.29809 5.2449,-11.36838 11.75986,-11.36838 z" />
            <path
               id="rect1033"
               style="fill:#1a1a1a;fill-opacity:1;stroke:none;stroke-width:13.5899;stroke-linecap:round;stroke-linejoin:round"
               d="m 192.97399,128.82391 c 6.51496,0 11.75985,3.09926 11.75985,6.94901 0,3.84975 -5.24489,6.94901 -11.75985,6.94901 -6.51497,0 -11.75986,-3.09926 -11.75986,-6.94901 0,-3.84975 5.24489,-6.94901 11.75986,-6.94901 z" />
          </g>
          <path
             id="rect1037"
             style="fill:#1a1a1a;fill-opacity:1;stroke:#1a1a1a;stroke-width:3.96855;stroke-linecap:round;stroke-linejoin:round"
             d="m 168.29677,123.85174 h 4.54357 v 1.87088 h -4.54357 z" />
        </g>
        <g
           id="g977"
           transform="matrix(-1,0,0,1,320.46715,3.2072343)"
           style="stroke-width:0.992137">
          <rect
             rx="7.6293974"
             ry="10.824415"
             y="128.82391"
             x="181.21413"
             height="21.64883"
             width="23.519718"
             id="rect971"
             style="fill:#000000;fill-opacity:1;stroke:none;stroke-width:3.96855;stroke-linecap:round;stroke-linejoin:round" />
          <rect
             transform="matrix(1,0,-0.30562864,0.95215079,0,0)"
             style="fill:#000000;fill-opacity:1;stroke:none;stroke-width:4.06705;stroke-linecap:round;stroke-linejoin:round"
             id="rect973"
             width="23.519718"
             height="22.736767"
             x="230.56157"
             y="135.29781"
             ry="10.451442"
             rx="7.103231" />
          <rect
             style="fill:#000000;fill-opacity:1;stroke:none;stroke-width:3.96855;stroke-linecap:round;stroke-linejoin:round"
             id="rect975"
             width="23.519718"
             height="13.898014"
             x="181.21413"
             y="128.82391"
             ry="4.8108392"
             rx="4.7354851" />
        </g>
        <g
           style="fill:#2b1100;stroke-width:0.992137"
           id="g1019"
           transform="translate(-110.12041,3.2072343)">
          <rect
             rx="7.6293974"
             ry="10.824415"
             y="128.82391"
             x="181.21413"
             height="21.64883"
             width="23.519718"
             id="rect1013"
             style="fill:#2b1100;fill-opacity:1;stroke:none;stroke-width:3.96855;stroke-linecap:round;stroke-linejoin:round" />
          <rect
             transform="matrix(1,0,-0.30562864,0.95215079,0,0)"
             style="fill:#2b1100;fill-opacity:1;stroke:none;stroke-width:4.06705;stroke-linecap:round;stroke-linejoin:round"
             id="rect1015"
             width="23.519718"
             height="22.736767"
             x="230.56157"
             y="135.29781"
             ry="10.451442"
             rx="7.103231" />
          <rect
             style="fill:#2b1100;fill-opacity:1;stroke:none;stroke-width:3.96855;stroke-linecap:round;stroke-linejoin:round"
             id="rect1017"
             width="23.519718"
             height="13.898014"
             x="181.21413"
             y="128.82391"
             ry="4.8108392"
             rx="4.7354851" />
        </g>
        <g
           style="fill:#333333;stroke-width:0.992137"
           id="g1170">
          <rect
             style="fill:#333333;fill-opacity:1;stroke:none;stroke-width:4.07953;stroke-linecap:round;stroke-linejoin:round;stroke-miterlimit:4;stroke-dasharray:none"
             id="rect1164"
             width="12.310255"
             height="5.7540336"
             x="61.310123"
             y="153.91348"
             ry="1.5119047"
             rx="1.4906452"
             transform="matrix(0.94632573,-0.3232145,0,1,0,0)" />
          <rect
             transform="matrix(0.93574712,-0.35267169,0,1,0,0)"
             rx="0"
             ry="0"
             y="156.37564"
             x="65.032707"
             height="4.8043385"
             width="9.4199486"
             id="rect1166"
             style="fill:#333333;fill-opacity:1;stroke:none;stroke-width:4.10253;stroke-linecap:round;stroke-linejoin:round;stroke-miterlimit:4;stroke-dasharray:none" />
        </g>
        <g
           id="g1067"
           transform="matrix(-1,0,0,1,243.06648,7.884451)"
           style="stroke-width:0.992137">
          <g
             id="g1063"
             transform="matrix(0.26086136,0,0,0.32690697,120.55942,79.775131)"
             style="fill:#1a1a1a;stroke-width:3.39746">
            <path
               d="m 192.97399,128.82391 c 6.51496,0 11.75985,4.82769 11.75985,10.82442 0,5.99672 -5.24489,10.82441 -11.75985,10.82441 -6.51497,0 -11.75986,-4.82769 -11.75986,-10.82441 0,-5.99673 5.24489,-10.82442 11.75986,-10.82442 z"
               style="fill:#1a1a1a;fill-opacity:1;stroke:none;stroke-width:13.5899;stroke-linecap:round;stroke-linejoin:round"
               id="path1057" />
            <path
               d="m 242.32143,135.29781 c 6.51496,0 11.75986,5.07029 11.75986,11.36838 0,6.29808 -5.2449,11.36838 -11.75986,11.36838 -6.51496,0 -11.75986,-5.0703 -11.75986,-11.36838 0,-6.29809 5.2449,-11.36838 11.75986,-11.36838 z"
               transform="matrix(1,0,-0.30562864,0.95215079,0,0)"
               style="fill:#1a1a1a;fill-opacity:1;stroke:none;stroke-width:13.9271;stroke-linecap:round;stroke-linejoin:round"
               id="path1059" />
            <path
               d="m 192.97399,128.82391 c 6.51496,0 11.75985,3.09926 11.75985,6.94901 0,3.84975 -5.24489,6.94901 -11.75985,6.94901 -6.51497,0 -11.75986,-3.09926 -11.75986,-6.94901 0,-3.84975 5.24489,-6.94901 11.75986,-6.94901 z"
               style="fill:#1a1a1a;fill-opacity:1;stroke:none;stroke-width:13.5899;stroke-linecap:round;stroke-linejoin:round"
               id="path1061" />
          </g>
          <path
             d="m 168.29677,123.85174 h 4.54357 v 1.87088 h -4.54357 z"
             style="fill:#1a1a1a;fill-opacity:1;stroke:#1a1a1a;stroke-width:3.96855;stroke-linecap:round;stroke-linejoin:round"
             id="path1065" />
        </g>
        <g
           id="g1075"
           transform="matrix(1.1287751,0,0,1.1723199,-135.60981,-21.257856)"
           style="fill:#1a1a1a;stroke-width:0.862471">
          <rect
             rx="6.7590055"
             ry="9.2333288"
             y="128.82391"
             x="181.21413"
             height="21.64883"
             width="23.519718"
             id="rect1069"
             style="fill:#1a1a1a;fill-opacity:1;stroke:none;stroke-width:3.44988;stroke-linecap:round;stroke-linejoin:round" />
          <rect
             transform="matrix(1,0,-0.30562864,0.95215079,0,0)"
             style="fill:#1a1a1a;fill-opacity:1;stroke:none;stroke-width:3.53551;stroke-linecap:round;stroke-linejoin:round"
             id="rect1071"
             width="23.519718"
             height="22.736767"
             x="230.56157"
             y="135.29781"
             ry="8.9414816"
             rx="6.2928662" />
          <rect
             style="fill:#1a1a1a;fill-opacity:1;stroke:none;stroke-width:3.44988;stroke-linecap:round;stroke-linejoin:round"
             id="rect1073"
             width="23.519718"
             height="13.898014"
             x="181.21413"
             y="128.82391"
             ry="4.1036916"
             rx="4.1952419" />
        </g>
        <g
           transform="translate(-109.86837,3.2072343)"
           id="g1083"
           style="stroke-width:0.992137">
          <rect
             style="fill:#000000;fill-opacity:1;stroke:none;stroke-width:3.96855;stroke-linecap:round;stroke-linejoin:round"
             id="rect1077"
             width="23.519718"
             height="21.64883"
             x="181.21413"
             y="128.82391"
             ry="10.824415"
             rx="7.6293974" />
          <rect
             rx="7.103231"
             ry="10.451442"
             y="135.29781"
             x="230.56157"
             height="22.736767"
             width="23.519718"
             id="rect1079"
             style="fill:#000000;fill-opacity:1;stroke:none;stroke-width:4.06705;stroke-linecap:round;stroke-linejoin:round"
             transform="matrix(1,0,-0.30562864,0.95215079,0,0)" />
          <rect
             rx="4.7354851"
             ry="4.8108392"
             y="128.82391"
             x="181.21413"
             height="13.898014"
             width="23.519718"
             id="rect1081"
             style="fill:#000000;fill-opacity:1;stroke:none;stroke-width:3.96855;stroke-linecap:round;stroke-linejoin:round" />
        </g>
      </g>
      <rect
         style="fill:#ffccaa;fill-opacity:1;stroke:#ffccaa;stroke-width:4;stroke-linecap:round;stroke-linejoin:round"
         id="rect1098"
         width="12.756696"
         height="3.3072915"
         x="98.651779"
         y="125.96056"
         rx="6.4255919"
         ry="3.3072915" />
      <path
         d="m 90.041354,94.715632 a 15.874666,3.7705443 0 0 1 11.548026,-4.558995 15.874666,3.7705443 0 0 1 19.24524,2.722625 15.874666,3.7705443 0 0 1 -11.37723,4.583158 15.874666,3.7705443 0 0 1 -19.346208,-2.681949"
         sodipodi:arc-type="arc"
         sodipodi:open="true"
         sodipodi:end="2.8822891"
         sodipodi:start="2.9000391"
         sodipodi:ry="3.7705443"
         sodipodi:rx="15.874666"
         sodipodi:cy="93.813675"
         sodipodi:cx="105.45514"
         sodipodi:type="arc"
         id="path1156"
         style="fill:#2b1100;fill-opacity:1;stroke:#2b1100;stroke-width:4;stroke-linecap:round;stroke-linejoin:round" />
    </g>
  </g>
</svg>
