<?xml version="1.0" encoding="UTF-8" standalone="no"?>
<svg
   xmlns:dc="http://purl.org/dc/elements/1.1/"
   xmlns:cc="http://creativecommons.org/ns#"
   xmlns:rdf="http://www.w3.org/1999/02/22-rdf-syntax-ns#"
   xmlns:svg="http://www.w3.org/2000/svg"
   xmlns="http://www.w3.org/2000/svg"
   xmlns:sodipodi="http://sodipodi.sourceforge.net/DTD/sodipodi-0.dtd"
   xmlns:inkscape="http://www.inkscape.org/namespaces/inkscape"
   inkscape:export-ydpi="96"
   inkscape:export-xdpi="96"
   inkscape:export-filename="/home/arikbartzadok/Desktop/ETEC_AULAS/INFONET/CP/Atividade_02_diogo/head.png"
   inkscape:version="0.92.5 (2060ec1f9f, 2020-04-08)"
   sodipodi:docname="Guilherme.svg"
   id="svg1048"
   version="1.1"
   viewBox="0 0 210 297"
   height="297mm"
   width="210mm">
  <defs
     id="defs1042">
    <inkscape:path-effect
       only_selected="false"
       apply_with_weight="true"
       apply_no_weight="true"
       helper_size="0"
       steps="2"
       weight="33.333333"
       lpeversion="1"
       is_visible="true"
       id="path-effect973"
       effect="bspline" />
    <inkscape:path-effect
       only_selected="false"
       apply_with_weight="true"
       apply_no_weight="true"
       helper_size="0"
       steps="2"
       weight="33.333333"
       lpeversion="1"
       is_visible="true"
       id="path-effect969"
       effect="bspline" />
    <inkscape:path-effect
       effect="bspline"
       id="path-effect961"
       is_visible="true"
       lpeversion="1"
       weight="33.333333"
       steps="2"
       helper_size="0"
       apply_no_weight="true"
       apply_with_weight="true"
       only_selected="false" />
    <inkscape:path-effect
       effect="bspline"
       id="path-effect957"
       is_visible="true"
       lpeversion="1"
       weight="33.333333"
       steps="2"
       helper_size="0"
       apply_no_weight="true"
       apply_with_weight="true"
       only_selected="false" />
    <clipPath
       id="clipPath79"
       clipPathUnits="userSpaceOnUse">
      <path
         style="fill:#800000;stroke:#ffb380;stroke-width:4.00029;stroke-linecap:round;stroke-linejoin:round"
         id="path81"
         sodipodi:type="arc"
         sodipodi:cx="-203.63268"
         sodipodi:cy="-169.81395"
         sodipodi:rx="20.555288"
         sodipodi:ry="17.11335"
         sodipodi:start="2.9000391"
         sodipodi:end="0.16294516"
         sodipodi:open="true"
         sodipodi:arc-type="arc"
         transform="matrix(-0.99924797,-0.03877484,0.05598637,-0.99843153,0,0)" />
    </clipPath>
    <clipPath
       id="clipPath83"
       clipPathUnits="userSpaceOnUse">
      <path
         style="fill:#800000;stroke:#ffb380;stroke-width:4.00029;stroke-linecap:round;stroke-linejoin:round"
         id="path85"
         sodipodi:type="arc"
         sodipodi:cx="-203.63268"
         sodipodi:cy="-169.81395"
         sodipodi:rx="20.555288"
         sodipodi:ry="17.11335"
         sodipodi:start="2.9000391"
         sodipodi:end="0.16294516"
         sodipodi:open="true"
         sodipodi:arc-type="arc"
         transform="matrix(-0.99924797,-0.03877484,0.05598637,-0.99843153,0,0)" />
    </clipPath>
    <clipPath
       id="clipPath87"
       clipPathUnits="userSpaceOnUse">
      <path
         style="fill:#800000;stroke:#ffb380;stroke-width:4.00029;stroke-linecap:round;stroke-linejoin:round"
         id="path89"
         sodipodi:type="arc"
         sodipodi:cx="-203.63268"
         sodipodi:cy="-169.81395"
         sodipodi:rx="20.555288"
         sodipodi:ry="17.11335"
         sodipodi:start="2.9000391"
         sodipodi:end="0.16294516"
         sodipodi:open="true"
         sodipodi:arc-type="arc"
         transform="matrix(-0.99924797,-0.03877484,0.05598637,-0.99843153,0,0)" />
    </clipPath>
  </defs>
  <sodipodi:namedview
     inkscape:snap-global="false"
     inkscape:document-rotation="0"
     inkscape:window-maximized="0"
     inkscape:window-y="0"
     inkscape:window-x="418"
     inkscape:window-height="729"
     inkscape:window-width="932"
     showgrid="false"
     inkscape:current-layer="layer2"
     inkscape:document-units="mm"
     inkscape:cy="516.91836"
     inkscape:cx="554.14691"
     inkscape:zoom="0.49497475"
     inkscape:pageshadow="2"
     inkscape:pageopacity="0.0"
     borderopacity="1.0"
     bordercolor="#666666"
     pagecolor="#ffffff"
     id="base" />
  <metadata
     id="metadata1045">
    <rdf:RDF>
      <cc:Work
         rdf:about="">
        <dc:format>image/svg+xml</dc:format>
        <dc:type
           rdf:resource="http://purl.org/dc/dcmitype/StillImage" />
        <dc:title />
      </cc:Work>
    </rdf:RDF>
  </metadata>
  <g
     style="opacity:1"
     inkscape:label="Camada 2"
     id="layer2"
     inkscape:groupmode="layer">
    <g
       id="g890">
      <rect
         style="fill:#ffb380;fill-opacity:1;stroke:#ffccaa;stroke-width:5;stroke-linecap:round;stroke-linejoin:round;stroke-miterlimit:4;stroke-dasharray:none"
         id="rect1160"
         width="95.201675"
         height="40.47953"
         x="58.237892"
         y="122.91105"
         rx="32.409077"
         ry="19.833023" />
      <rect
         style="fill:#000000;stroke:#000000;stroke-width:4;stroke-linecap:round;stroke-linejoin:round"
         id="rect39"
         width="93.544327"
         height="83.92263"
         x="59.333832"
         y="81.271431"
         rx="46.49107"
         ry="30.238094" />
      <rect
         ry="0"
         rx="0"
         y="108.33453"
         x="59.333832"
         height="8.7295332"
         width="93.544327"
         id="rect979"
         style="fill:#000000;stroke:#000000;stroke-width:4.00001;stroke-linecap:round;stroke-linejoin:round" />
      <path
         d="M 61.378466,103.79537 A 21.922935,12.986137 0 0 1 77.326303,88.093733 21.922935,12.986137 0 0 1 103.904,97.470728 21.922935,12.986137 0 0 1 88.192043,113.25559 21.922935,12.986137 0 0 1 61.474899,104.01868"
         sodipodi:arc-type="arc"
         sodipodi:open="true"
         sodipodi:end="2.8822891"
         sodipodi:start="2.9000391"
         sodipodi:ry="12.986137"
         sodipodi:rx="21.922935"
         sodipodi:cy="100.68894"
         sodipodi:cx="82.664925"
         sodipodi:type="arc"
         id="path1156"
         style="fill:#000000;fill-opacity:1;stroke:#000000;stroke-width:4.00001;stroke-linecap:round;stroke-linejoin:round" />
      <path
         style="fill:#000000;fill-opacity:1;stroke:#000000;stroke-width:4.00001;stroke-linecap:round;stroke-linejoin:round"
         id="path911"
         sodipodi:type="arc"
         sodipodi:cx="125.96259"
         sodipodi:cy="95.343552"
         sodipodi:rx="21.922935"
         sodipodi:ry="12.986137"
         sodipodi:start="2.9000391"
         sodipodi:end="2.8822891"
         sodipodi:open="true"
         sodipodi:arc-type="arc"
         d="m 104.67613,98.449983 a 21.922935,12.986137 0 0 1 15.94784,-15.70164 21.922935,12.986137 0 0 1 26.5777,9.376995 21.922935,12.986137 0 0 1 -15.71196,15.784862 21.922935,12.986137 0 0 1 -26.71714,-9.236906" />
      <path
         transform="matrix(0.992797,-0.11980869,0.1629368,0.98663651,0,0)"
         style="fill:#000000;fill-opacity:1;stroke:#000000;stroke-width:4.00189;stroke-linecap:round;stroke-linejoin:round"
         id="path909"
         sodipodi:type="arc"
         sodipodi:cx="85.385124"
         sodipodi:cy="98.335167"
         sodipodi:rx="33.967003"
         sodipodi:ry="10.20048"
         sodipodi:start="2.9000391"
         sodipodi:end="2.8822891"
         sodipodi:open="true"
         sodipodi:arc-type="arc"
         d="M 52.404268,100.77524 A 33.967003,10.20048 0 0 1 77.113559,88.441757 33.967003,10.20048 0 0 1 118.29257,95.807292 33.967003,10.20048 0 0 1 93.948742,108.20614 33.967003,10.20048 0 0 1 52.553679,100.95065" />
      <path
         d="m 107.88337,104.32991 a 21.922935,12.986137 0 0 1 15.94784,-15.701638 21.922935,12.986137 0 0 1 26.5777,9.376994 21.922935,12.986137 0 0 1 -15.71196,15.784864 21.922935,12.986137 0 0 1 -26.71714,-9.23691"
         sodipodi:arc-type="arc"
         sodipodi:open="true"
         sodipodi:end="2.8822891"
         sodipodi:start="2.9000391"
         sodipodi:ry="12.986137"
         sodipodi:rx="21.922935"
         sodipodi:cy="101.22348"
         sodipodi:cx="129.16983"
         sodipodi:type="arc"
         id="path913"
         style="fill:#000000;fill-opacity:1;stroke:#000000;stroke-width:4.00001;stroke-linecap:round;stroke-linejoin:round" />
      <g
         transform="matrix(1.1468714,0,0,0.99431184,-142.08263,-7.6348078)"
         style="fill:#ffccaa;stroke-width:0.936447"
         id="g1050">
        <rect
           style="fill:#ffccaa;fill-opacity:1;stroke:none;stroke-width:3.74577;stroke-linecap:round;stroke-linejoin:round"
           id="rect1046"
           width="71.815475"
           height="102.43154"
           x="180.29465"
           y="103.1875"
           rx="22.577656"
           ry="36.355633" />
        <rect
           ry="57.290356"
           rx="37.900734"
           y="109.53748"
           x="179.16072"
           height="102.43154"
           width="74.083336"
           id="rect1048"
           style="fill:#ffccaa;fill-opacity:1;stroke:none;stroke-width:3.74577;stroke-linecap:round;stroke-linejoin:round" />
      </g>
      <path
         d="m 130.90086,187.40957 a 25.135414,21.820879 0 0 1 -29.73186,16.46985 25.135414,21.820879 0 0 1 -19.432197,-25.55165 25.135414,21.820879 0 0 1 29.126747,-17.26552 25.135414,21.820879 0 0 1 20.3392,25.014"
         sodipodi:arc-type="arc"
         sodipodi:open="true"
         sodipodi:end="0.16294516"
         sodipodi:start="0.22522697"
         sodipodi:ry="21.820879"
         sodipodi:rx="25.135414"
         sodipodi:cy="182.53636"
         sodipodi:cx="106.40028"
         sodipodi:type="arc"
         id="path1030"
         style="fill:#999999;fill-opacity:0.0767263;stroke:none;stroke-width:0.499999;stroke-linecap:round;stroke-linejoin:round;stroke-miterlimit:4;stroke-dasharray:none" />
      <path
         d="m -141.56162,-170.62435 a 17.932661,7.8862481 0 0 1 6.84247,-8.2573 17.932661,7.8862481 0 0 1 19.96888,-0.34534 17.932661,7.8862481 0 0 1 8.2958,7.9955"
         transform="matrix(-0.99979194,-0.02039814,0.10604846,-0.99436096,0,0)"
         sodipodi:arc-type="arc"
         sodipodi:open="true"
         sodipodi:end="0.16294516"
         sodipodi:start="2.9000391"
         sodipodi:ry="7.8862481"
         sodipodi:rx="17.932661"
         sodipodi:cy="-172.51083"
         sodipodi:cx="-124.14959"
         sodipodi:type="arc"
         id="path91"
         style="fill:#ffffff;stroke:#ffb380;stroke-width:4.00737;stroke-linecap:round;stroke-linejoin:round" />
      <rect
         style="fill:#ffb380;fill-opacity:1;stroke:none;stroke-width:4;stroke-linecap:round;stroke-linejoin:round"
         id="rect981"
         width="9.9299507"
         height="34.12254"
         x="101.08894"
         y="130.01027"
         rx="4.9649754"
         ry="6.855907" />
      <path
         style="fill:#000000;fill-opacity:1;stroke:#000000;stroke-width:4;stroke-linecap:round;stroke-linejoin:round"
         id="path995"
         sodipodi:type="arc"
         sodipodi:cx="105.07716"
         sodipodi:cy="90.789864"
         sodipodi:rx="15.874666"
         sodipodi:ry="3.7705443"
         sodipodi:start="2.9000391"
         sodipodi:end="2.8822891"
         sodipodi:open="true"
         sodipodi:arc-type="arc"
         d="M 89.663378,91.691821 A 15.874666,3.7705443 0 0 1 101.2114,87.132826 15.874666,3.7705443 0 0 1 120.45664,89.85545 15.874666,3.7705443 0 0 1 109.07942,94.438608 15.874666,3.7705443 0 0 1 89.733207,91.756659" />
      <path
         d="m 97.728205,157.71942 a 8.5505409,5.2396626 0 0 1 6.220085,-6.33532 8.5505409,5.2396626 0 0 1 10.36603,3.78345 8.5505409,5.2396626 0 0 1 -6.12809,6.36889 8.5505409,5.2396626 0 0 1 -10.420414,-3.72692"
         sodipodi:arc-type="arc"
         sodipodi:open="true"
         sodipodi:end="2.8822891"
         sodipodi:start="2.9000391"
         sodipodi:ry="5.2396626"
         sodipodi:rx="8.5505409"
         sodipodi:cy="156.46603"
         sodipodi:cx="106.0305"
         sodipodi:type="arc"
         id="path905"
         style="fill:#ffb380;stroke:none;stroke-width:0.499998;stroke-linecap:round;stroke-linejoin:round" />
      <path
         sodipodi:nodetypes="cccc"
         id="path907"
         d="M 60.018569,126.57261 72.714353,109.73715 73.847911,92.100018 C 68.316695,96.422424 62.616767,99.43248 60.018569,126.57261 Z"
         style="fill:#000000;fill-opacity:1;stroke:#000000;stroke-width:0.264584px;stroke-linecap:butt;stroke-linejoin:miter;stroke-opacity:1" />
      <path
         style="fill:#000000;fill-opacity:1;stroke:#000000;stroke-width:0.264584px;stroke-linecap:butt;stroke-linejoin:miter;stroke-opacity:1"
         d="m 152.13954,126.57261 -12.69585,-16.83546 -1.13357,-17.637132 c 5.53125,4.322406 11.23121,7.332462 13.82942,34.472592 z"
         id="path915"
         sodipodi:nodetypes="cccc" />
      <path
         style="fill:#c4c8b7;fill-opacity:0.411765;stroke:#f2f2f2;stroke-width:0.5;stroke-linecap:round;stroke-linejoin:round;stroke-miterlimit:4;stroke-dasharray:none;stroke-opacity:1"
         d="m 141.76018,129.26787 h -29.86029 c 0.75763,4.58681 0.54525,10.75307 2.56757,13.28062 1.54782,0.76202 24.34369,1.82021 25.0897,0.0729 2.66934,-0.0785 2.60841,-8.67435 2.20302,-13.35346 z"
         id="path953"
         sodipodi:nodetypes="cccccc" />
      <rect
         ry="2.4568474"
         rx="7.1815476"
         y="170.18286"
         x="86.358932"
         height="3.7901101"
         width="38.672916"
         id="rect925"
         style="fill:#ffb380;fill-opacity:1;stroke:none;stroke-width:0.499999;stroke-linecap:round;stroke-linejoin:round" />
      <rect
         transform="rotate(-4.7546007)"
         ry="2.4568467"
         rx="7.1815591"
         y="128.04794"
         x="103.4287"
         height="4.9750128"
         width="23.518242"
         id="rect927"
         style="fill:#000000;fill-opacity:1;stroke:none;stroke-width:0.499999;stroke-linecap:round;stroke-linejoin:round" />
      <path
         sodipodi:nodetypes="cccccc"
         id="path951"
         d="m 70.832736,129.26787 h 29.860124 c -0.757627,4.58681 -0.54525,10.75307 -2.567556,13.28062 -1.547814,0.76202 -24.343555,1.82021 -25.08956,0.0729 -2.669323,-0.0785 -2.608389,-8.67435 -2.203008,-13.35346 z"
         style="fill:#c4c8b7;fill-opacity:0.411765;stroke:#f2f2f2;stroke-width:0.5;stroke-linecap:round;stroke-linejoin:round;stroke-miterlimit:4;stroke-dasharray:none;stroke-opacity:1" />
      <path
         transform="scale(-1,1)"
         style="fill:#000000;fill-opacity:1;stroke:none;stroke-width:0.499999;stroke-linecap:round;stroke-linejoin:round"
         id="path933"
         sodipodi:type="arc"
         sodipodi:cx="-85.389221"
         sodipodi:cy="135.76753"
         sodipodi:rx="4.7039433"
         sodipodi:ry="4.2763119"
         sodipodi:start="2.9000391"
         sodipodi:end="2.8822891"
         sodipodi:open="true"
         sodipodi:arc-type="arc"
         d="m -89.956597,136.79047 a 4.7039433,4.2763119 0 0 1 3.421883,-5.17052 4.7039433,4.2763119 0 0 1 5.702703,3.08783 4.7039433,4.2763119 0 0 1 -3.371272,5.19793 4.7039433,4.2763119 0 0 1 -5.732623,-3.0417" />
      <rect
         style="fill:#000000;fill-opacity:1;stroke:none;stroke-width:0.499999;stroke-linecap:round;stroke-linejoin:round"
         id="rect935"
         width="23.518242"
         height="4.9750128"
         x="-107.90602"
         y="110.47019"
         rx="7.1815591"
         ry="2.4568467"
         transform="matrix(-0.99655885,-0.08288823,-0.08288823,0.99655885,0,0)" />
      <rect
         transform="matrix(0.14948049,0.98876468,-0.97520685,0.2212953,0,0)"
         ry="2.4427514"
         rx="2.3629055"
         y="-91.530792"
         x="150.02229"
         height="2.0131309"
         width="8.7245665"
         id="rect943"
         style="fill:#ac9393;fill-opacity:1;stroke:none;stroke-width:0.500666;stroke-linecap:round;stroke-linejoin:round" />
      <rect
         style="fill:#ac9393;fill-opacity:1;stroke:none;stroke-width:0.500666;stroke-linecap:round;stroke-linejoin:round"
         id="rect945"
         width="8.7245665"
         height="2.0131309"
         x="102.83556"
         y="119.30348"
         rx="2.3629055"
         ry="2.4427514"
         transform="matrix(-0.14948049,0.98876468,0.97520685,0.2212953,0,0)" />
      <path
         sodipodi:nodetypes="ccccccccc"
         id="path963"
         d="m 69.222807,127.48756 c 12.945764,-1.29954 22.917131,-0.81443 32.339613,0 4.88529,-0.81076 7.19186,-0.41001 9.08716,0 12.2944,-1.06908 22.807,-1.06908 31.53781,0 l 0.26726,1.60362 -31.27053,-0.26727 c -1.88203,-0.81889 -7.96624,-0.74467 -9.88897,0.0668 l -32.339615,-0.0668 z"
         style="fill:#999999;stroke:none;stroke-width:0.264583px;stroke-linecap:butt;stroke-linejoin:miter;stroke-opacity:1" />
      <rect
         inkscape:transform-center-y="2.5253757"
         inkscape:transform-center-x="0.39581009"
         style="fill:#ac9393;fill-opacity:1;stroke:none;stroke-width:0.502266;stroke-linecap:round;stroke-linejoin:round"
         id="rect1034"
         width="12.368932"
         height="2.4592371"
         x="189.29074"
         y="60.511131"
         rx="2.3218133"
         ry="2.3810556"
         transform="matrix(0.9173563,0.3980671,-0.51737033,0.85576161,0,0)" />
      <rect
         transform="matrix(-0.9173563,0.3980671,0.51737033,0.85576161,0,0)"
         ry="2.3810556"
         rx="2.3218133"
         y="145.75209"
         x="6.0419331"
         height="2.4592371"
         width="12.368932"
         id="rect1036"
         style="fill:#ac9393;fill-opacity:1;stroke:none;stroke-width:0.502266;stroke-linecap:round;stroke-linejoin:round"
         inkscape:transform-center-x="-0.39580273"
         inkscape:transform-center-y="2.5253699" />
      <rect
         transform="matrix(0.69068817,-0.72315271,0.85228562,0.52307669,0,0)"
         ry="2.3353667"
         rx="2.2662942"
         y="182.4507"
         x="-35.247803"
         height="8.5698624"
         width="4.947813"
         id="rect1038"
         style="fill:#000000;fill-opacity:1;stroke:none;stroke-width:5.05691;stroke-linecap:round;stroke-linejoin:round;stroke-miterlimit:4;stroke-dasharray:none" />
      <rect
         style="fill:#000000;fill-opacity:1;stroke:none;stroke-width:5.05691;stroke-linecap:round;stroke-linejoin:round;stroke-miterlimit:4;stroke-dasharray:none"
         id="rect1040"
         width="4.947813"
         height="8.5698624"
         x="-148.77448"
         y="25.50112"
         rx="2.2662942"
         ry="2.3353667"
         transform="matrix(-0.69068817,-0.72315271,-0.85228562,0.52307669,0,0)" />
      <path
         sodipodi:nodetypes="cccccc"
         id="path1042"
         d="m 63.940989,139.85117 c 1.719966,10.07277 4.661792,22.84532 6.858603,35.15178 4.034472,7.68902 8.068944,11.11844 12.103417,14.3631 l 13.515481,12.09524 c -1.15495,-0.9435 -22.496762,-2.59199 -31.267158,-30.61607 -1.793654,-9.68013 -1.520401,-20.32847 -1.210343,-30.99405 z"
         style="fill:#cccccc;fill-opacity:0.250639;stroke:none;stroke-width:0.264583px;stroke-linecap:butt;stroke-linejoin:miter;stroke-opacity:1" />
      <path
         style="fill:#cccccc;fill-opacity:0.250639;stroke:none;stroke-width:0.264583px;stroke-linecap:butt;stroke-linejoin:miter;stroke-opacity:1"
         d="m 148.15656,139.322 c -1.71998,10.07277 -4.66182,22.84532 -6.85864,35.15178 -4.03451,7.68902 -8.069,11.11844 -12.10349,14.3631 l -13.51556,12.09524 c 1.15495,-0.9435 22.49689,-2.59199 31.26733,-30.61607 1.79367,-9.68013 1.52041,-20.32847 1.21036,-30.99405 z"
         id="path1044"
         sodipodi:nodetypes="cccccc" />
      <path
         style="fill:#999999;stroke:none;stroke-width:0.264583px;stroke-linecap:butt;stroke-linejoin:miter;stroke-opacity:1"
         d="m 69.222807,127.48756 c 12.945764,-1.29954 22.917131,-0.81443 32.339613,0 4.88529,-0.81076 7.19186,-0.41001 9.08716,0 12.2944,-1.06908 22.807,-1.06908 31.53781,0 l 0.26726,1.60362 -31.27053,-0.26727 c -1.88203,-0.81889 -7.96624,-0.74467 -9.88897,0.0668 l -32.339615,-0.0668 z"
         id="path1054"
         sodipodi:nodetypes="ccccccccc" />
      <path
         d="m -131.76077,136.79047 a 4.7039433,4.2763119 0 0 1 3.42189,-5.17052 4.7039433,4.2763119 0 0 1 5.7027,3.08783 4.7039433,4.2763119 0 0 1 -3.37127,5.19793 4.7039433,4.2763119 0 0 1 -5.73262,-3.0417"
         sodipodi:arc-type="arc"
         sodipodi:open="true"
         sodipodi:end="2.8822891"
         sodipodi:start="2.9000391"
         sodipodi:ry="4.2763119"
         sodipodi:rx="4.7039433"
         sodipodi:cy="135.76753"
         sodipodi:cx="-127.19339"
         sodipodi:type="arc"
         id="path1056"
         style="fill:#000000;fill-opacity:1;stroke:none;stroke-width:0.499999;stroke-linecap:round;stroke-linejoin:round"
         transform="scale(-1,1)" />
    </g>
  </g>
</svg>
