<?xml version="1.0" encoding="UTF-8" standalone="no"?>
<!-- Created with Inkscape (http://www.inkscape.org/) -->

<svg
   xmlns:dc="http://purl.org/dc/elements/1.1/"
   xmlns:cc="http://creativecommons.org/ns#"
   xmlns:rdf="http://www.w3.org/1999/02/22-rdf-syntax-ns#"
   xmlns:svg="http://www.w3.org/2000/svg"
   xmlns="http://www.w3.org/2000/svg"
   xmlns:sodipodi="http://sodipodi.sourceforge.net/DTD/sodipodi-0.dtd"
   xmlns:inkscape="http://www.inkscape.org/namespaces/inkscape"
   width="210mm"
   height="297mm"
   viewBox="0 0 210 297"
   version="1.1"
   id="svg8"
   inkscape:export-filename="/home/arikbartzadok/Desktop/www/content/posts/2020-02-06-teste2/images/espera.png"
   inkscape:export-xdpi="96"
   inkscape:export-ydpi="96"
   inkscape:version="0.92.5 (2060ec1f9f, 2020-04-08)"
   sodipodi:docname="banners.svg">
  <defs
     id="defs2" />
  <sodipodi:namedview
     id="base"
     pagecolor="#ffffff"
     bordercolor="#666666"
     borderopacity="1.0"
     inkscape:pageopacity="0.0"
     inkscape:pageshadow="2"
     inkscape:zoom="0.54115914"
     inkscape:cx="351.76198"
     inkscape:cy="695.55252"
     inkscape:document-units="mm"
     inkscape:current-layer="layer1"
     showgrid="false"
     inkscape:window-width="1366"
     inkscape:window-height="740"
     inkscape:window-x="0"
     inkscape:window-y="0"
     inkscape:window-maximized="1" />
  <metadata
     id="metadata5">
    <rdf:RDF>
      <cc:Work
         rdf:about="">
        <dc:format>image/svg+xml</dc:format>
        <dc:type
           rdf:resource="http://purl.org/dc/dcmitype/StillImage" />
        <dc:title />
      </cc:Work>
    </rdf:RDF>
  </metadata>
  <g
     inkscape:label="Camada 1"
     inkscape:groupmode="layer"
     id="layer1">
    <g
       id="g8719"
       inkscape:export-filename="/home/arikbartzadok/Desktop/www/content/posts/2020-02-06-teste2/images/espera.png"
       inkscape:export-xdpi="96"
       inkscape:export-ydpi="96">
      <path
         id="path7715"
         d="m 132.00464,92.065793 h -0.91628 V 66.964413 A 14.527997,14.527997 0 0 0 116.56031,52.436399 H 63.379686 A 14.528,14.528 0 0 0 48.851635,66.964413 V 204.67253 a 14.527997,14.527997 0 0 0 14.528051,14.52802 h 53.180634 a 14.527995,14.527995 0 0 0 14.52805,-14.52802 v -94.73914 h 0.91628 z"
         inkscape:connector-curvature="0"
         style="fill:#3f3d56;stroke-width:0.23418365" />
      <rect
         id="rect7717"
         height="0.46836731"
         width="168.14386"
         y="212.35365"
         x="10.51269"
         style="fill:#3f3d56;stroke-width:0.23418365" />
      <path
         id="path7719"
         d="m 117.14653,56.216086 h -6.94182 a 5.1544992,5.1544992 0 0 1 -4.77237,7.101221 H 74.965805 A 5.1545039,5.1545039 0 0 1 70.19344,56.216086 H 63.709751 A 10.849347,10.849347 0 0 0 52.860391,67.065419 V 204.57151 a 10.849351,10.849351 0 0 0 10.84936,10.84935 h 53.436779 a 10.849349,10.849349 0 0 0 10.84936,-10.84935 V 67.065419 A 10.849344,10.849344 0 0 0 117.14653,56.216086 Z"
         inkscape:connector-curvature="0"
         style="opacity:1;stroke-width:0.23418365;fill:#ffffff;fill-opacity:0.97019869" />
      <path
         id="path7721"
         d="m 27.214272,212.79719 -0.251336,-0.0942 c -0.05523,-0.0208 -5.552143,-2.12686 -8.127132,-6.90224 -2.575107,-4.77561 -1.314197,-10.52546 -1.30116,-10.58286 l 0.05935,-0.26186 0.251222,0.0942 c 0.05523,0.0208 5.552026,2.12686 8.127133,6.90225 2.575105,4.77561 1.314197,10.52545 1.30116,10.58286 z m -7.966132,-7.21875 c 2.177063,4.03761 6.520893,6.1073 7.621488,6.57978 0.209257,-1.1796 0.865496,-5.94972 -1.30962,-9.98345 -2.17489,-4.03326 -6.520439,-6.10615 -7.621491,-6.57978 -0.209369,1.18029 -0.865369,5.94995 1.309623,9.98345 z"
         inkscape:connector-curvature="0"
         style="fill:#3f3d56;stroke-width:0.23418365" />
      <path
         id="path7723"
         d="m 20.803693,204.1256 c 4.6276,2.78412 6.409841,8.31414 6.409841,8.31414 0,0 -5.720589,1.01608 -10.348189,-1.76804 -4.6276,-2.78411 -6.409841,-8.31414 -6.409841,-8.31414 0,0 5.720587,-1.01608 10.348189,1.76804 z"
         inkscape:connector-curvature="0"
         style="fill:#00ffff;stroke-width:0.23418365" />
      <rect
         id="rect7725"
         height="2.4784429"
         width="10.295074"
         y="106.27222"
         x="66.347481"
         style="fill:#00ffff;stroke-width:0.23418365" />
      <rect
         id="rect7727"
         height="2.4784429"
         width="3.6223409"
         y="106.27222"
         x="108.67167"
         style="fill:#00ffff;stroke-width:0.23418365" />
      <rect
         id="rect7729"
         height="2.4784429"
         width="3.6223409"
         y="106.27222"
         x="115.91635"
         style="fill:#00ffff;stroke-width:0.23418365" />
      <rect
         id="rect7731"
         height="2.4784429"
         width="24.593788"
         y="106.27222"
         x="80.264893"
         style="fill:#00ffff;stroke-width:0.23418365" />
      <rect
         id="rect7733"
         height="2.4784429"
         width="3.6223409"
         y="122.28677"
         x="95.707497"
         style="fill:#00ffff;stroke-width:0.23418365" />
      <rect
         id="rect7735"
         height="2.4784429"
         width="3.6223409"
         y="122.28677"
         x="102.95219"
         style="fill:#00ffff;stroke-width:0.23418365" />
      <rect
         id="rect7737"
         height="2.4784429"
         width="24.593788"
         y="122.28677"
         x="67.300728"
         style="fill:#00ffff;stroke-width:0.23418365" />
      <rect
         id="rect7739"
         height="2.4784429"
         width="10.295074"
         y="111.80105"
         x="95.898148"
         style="fill:#00ffff;stroke-width:0.23418365" />
      <rect
         id="rect7741"
         height="2.4784429"
         width="10.295074"
         y="111.80105"
         x="109.81556"
         style="fill:#00ffff;stroke-width:0.23418365" />
      <rect
         id="rect7743"
         height="2.4784429"
         width="3.6223409"
         y="111.80105"
         x="60.627991"
         style="fill:#00ffff;stroke-width:0.23418365" />
      <rect
         id="rect7745"
         height="2.4784429"
         width="24.593788"
         y="111.80105"
         x="67.872673"
         style="fill:#00ffff;stroke-width:0.23418365" />
      <rect
         id="rect7747"
         transform="scale(-1)"
         height="2.4784429"
         width="10.295074"
         y="-119.61768"
         x="-84.840485"
         style="fill:#00ffff;stroke-width:0.23418365" />
      <rect
         id="rect7749"
         transform="scale(-1)"
         height="2.4784429"
         width="10.295074"
         y="-119.61768"
         x="-70.923073"
         style="fill:#00ffff;stroke-width:0.23418365" />
      <rect
         id="rect7751"
         transform="scale(-1)"
         height="2.4784429"
         width="3.6223409"
         y="-119.61768"
         x="-120.11064"
         style="fill:#00ffff;stroke-width:0.23418365" />
      <rect
         id="rect7753"
         transform="scale(-1)"
         height="2.4784429"
         width="24.593788"
         y="-119.61768"
         x="-112.86596"
         style="fill:#00ffff;stroke-width:0.23418365" />
      <circle
         id="circle7755"
         r="9.3673458"
         cy="158.7256"
         cx="90.428146"
         style="fill:#00ffff;stroke-width:0.23418365;fill-opacity:1" />
      <path
         id="path7757"
         d="m 150.82846,103.36747 c -2.71815,-4.592831 -8.09579,-4.806877 -8.09579,-4.806877 0,0 -5.24021,-0.670112 -8.60176,6.324827 -3.13325,6.51986 -7.45752,12.81492 -0.69618,14.34118 l 1.2213,-3.80122 0.75634,4.08421 a 26.454956,26.454956 0 0 0 2.89293,0.0494 c 7.24085,-0.23378 14.13666,0.0684 13.91463,-2.52993 -0.29517,-3.45411 1.22394,-9.24242 -1.39147,-13.66164 z"
         inkscape:connector-curvature="0"
         style="fill:#00ffff;stroke-width:0.23418365" />
      <path
         id="path7759"
         d="m 141.03975,112.01677 c 0,0 3.51276,4.91786 1.4051,8.89898 -2.10765,3.98112 4.91786,8.19643 4.91786,8.19643 l 5.15204,-11.24082 c 0,0 -6.08877,-3.98112 -4.44949,-7.72806 z"
         inkscape:connector-curvature="0"
         style="fill:#fbbebe;stroke-width:0.23418365" />
      <circle
         id="circle7761"
         r="6.0887747"
         cy="108.03564"
         cx="143.38159"
         style="fill:#fbbebe;stroke-width:0.23418365" />
      <path
         id="path7763"
         d="m 122.30986,115.07424 5.08836,-6.56505 c 0,0 1.79164,-6.88145 4.38655,-6.53259 2.59491,0.34885 -1.02493,8.25259 -1.02493,8.25259 l -5.05589,7.26685 z"
         inkscape:connector-curvature="0"
         style="fill:#fbbebe;stroke-width:0.23418365" />
      <polygon
         transform="matrix(0.23418365,0,0,0.23418365,10.455502,52.436399)"
         id="polygon7765"
         points="605.615,637.417 587.615,640.417 594.615,677.417 609.615,681.417 "
         style="fill:#fbbebe" />
      <polygon
         transform="matrix(0.23418365,0,0,0.23418365,10.455502,52.436399)"
         id="polygon7767"
         points="776.615,642.417 785.615,627.417 758.615,592.417 738.615,600.417 765.615,637.417 "
         style="fill:#fbbebe" />
      <path
         id="path7769"
         d="m 146.66016,125.36524 -3.90644,-5.14252 c 0,0 -7.56856,1.39558 -8.27111,2.09813 -0.70255,0.70255 1.87347,13.58265 1.87347,13.58265 0,0 0.46837,3.51275 2.57602,5.38622 l 2.10765,1.4051 17.32959,-3.51275 0.65161,-7.71069 a 20.235835,20.235835 0 0 0 -5.33527,-15.47349 v 0 l -3.01531,0.41222 z"
         inkscape:connector-curvature="0"
         style="fill:#0000ff;stroke-width:0.23418365" />
      <path
         id="path7771"
         d="m 135.41934,122.78922 -1.17091,-0.46837 -5.38623,-0.46837 c 0,0 -1.87347,-0.46837 -1.4051,-1.4051 0.46837,-0.93673 0.93674,-1.17092 0,-1.4051 -0.93673,-0.23419 -1.17092,-0.46837 -0.93673,-1.17092 0.23418,-0.70255 1.63928,-2.10765 1.63928,-2.10765 l -3.98112,-3.27857 c 0,0 -0.21547,0.1524 -0.56375,0.43439 -1.97661,1.60035 -8.2309,7.3743 -3.65156,13.14826 5.38623,6.79132 11.70919,10.77245 16.86123,9.36734 z"
         inkscape:connector-curvature="0"
         style="fill:#0000ff;stroke-width:0.23418365" />
      <path
         id="path7773"
         d="m 140.57138,141.52391 v 3.27857 c 0,0 -2.10765,3.98112 -1.4051,7.72806 0.70255,3.74694 0.93674,5.62041 0.93674,5.62041 a 31.973869,31.973869 0 0 0 1.63928,9.36734 c 1.63929,4.68368 -3.74694,35.36174 3.04439,35.8301 6.79133,0.46837 10.53826,0.93674 12.64592,-1.4051 2.10765,-2.34184 -3.51276,-42.62142 -3.51276,-42.62142 0,0 19.20306,40.0454 23.18418,38.40611 3.98113,-1.63928 14.05102,-5.38622 12.88011,-7.49387 -1.17092,-2.10765 -30.67806,-48.94438 -30.67806,-48.94438 l -0.93674,-2.10766 z"
         inkscape:connector-curvature="0"
         style="fill:#00ffff;stroke-width:0.23418365" />
      <path
         id="path7775"
         d="m 151.8122,209.43717 c 0,0 -3.74694,-0.23419 -3.74694,0.93673 0,1.17092 -1.87347,5.15204 -1.87347,5.15204 0,0 -1.4051,4.68368 2.34184,4.21531 3.74694,-0.46837 6.08877,-4.68368 6.08877,-4.68368 l -0.93673,-4.44948 z"
         inkscape:connector-curvature="0"
         style="fill:#0000ff;stroke-width:0.23418365" />
      <path
         id="path7777"
         d="m 190.92087,201.24074 c 0,0 -3.27857,-2.10765 -3.04439,-0.70255 0.23419,1.4051 0.46837,5.15204 2.10766,5.38622 1.63928,0.23419 6.55714,1.63929 6.79132,2.10766 0.23418,0.46836 5.8546,2.34183 5.8546,-0.70256 0,-3.04438 -3.51276,-5.38622 -3.51276,-5.38622 l -3.98112,-3.04439 c 0,0 -2.57602,-0.23418 -3.04439,1.4051 -0.46837,1.63929 -1.17092,0.93674 -1.17092,0.93674 z"
         inkscape:connector-curvature="0"
         style="fill:#0000ff;stroke-width:0.23418365" />
      <circle
         id="circle7779"
         r="3.888329"
         cy="98.583855"
         cx="143.39084"
         style="fill:#00ffff;stroke-width:0.23418365" />
      <path
         id="path7781"
         d="m 139.09321,97.560612 a 3.888479,3.888479 0 0 1 3.47903,-3.86647 3.8883291,3.8883291 0 1 0 0,7.732938 3.888479,3.888479 0 0 1 -3.47903,-3.866468 z"
         inkscape:connector-curvature="0"
         style="fill:#00ffff;stroke-width:0.23418365" />
      <polygon
         transform="matrix(0.23418365,0,0,0.23418365,10.455502,52.436399)"
         id="polygon7783"
         points="561.873,236.119 566.194,219.374 568.895,237.199 595.363,236.659 594.282,215.593 571.596,203.709 540.266,208.571 533.785,237.199 549.92,236.579 554.428,226.061 554.428,236.405 "
         style="fill:#00ffff" />
      <path
         id="path7785"
         d="m 149.3086,142.06645 -8.19344,0.22151 c 0,0 -6.99129,1.36038 -6.59905,-1.46147 0.39225,-2.82184 7.21274,-1.83489 7.21274,-1.83489 l 7.46583,-1.13892 z"
         inkscape:connector-curvature="0"
         style="fill:#fbbebe;stroke-width:0.23418365" />
      <path
         id="path7787"
         d="m 155.79128,115.60092 a 1.7485697,1.7485697 0 0 1 1.9287,1.20089 c 1.60403,5.05462 6.54561,21.96955 1.63585,24.29019 -5.78283,2.73331 -10.00292,2.61314 -10.00292,2.61314 l -2.25878,-5.5614 2.05625,-1.92974 2.19533,-14.11551 1.05196,-5.9835 z"
         inkscape:connector-curvature="0"
         style="fill:#0000ff;stroke-width:0.23418365" />
      <polygon
         transform="matrix(0.23418365,0,0,0.23418365,10.455502,52.436399)"
         id="polygon7789"
         points="614.115,355.917 614.115,309.917 610.115,349.917 575.115,364.917 "
         style="opacity:0.4" />
    </g>
  </g>
</svg>
